<svg xmlns="http://www.w3.org/2000/svg" xmlns:xlink="http://www.w3.org/1999/xlink" viewBox="0 0 50 50" fill="#FFFFFF">
  <path d="M37.40625 4.59375L34.59375 7.40625L36.1875 9L33.5625 9C31.238281 9 29.105469 10.359375 28.125 12.46875L24.8125 19.53125L27.03125 24.28125L31.75 14.15625C32.078125 13.453125 32.785156 13 33.5625 13L36.1875 13L34.59375 14.59375L37.40625 17.40625L42.40625 12.40625L43.84375 11L42.40625 9.59375 Z M 8 9L8 13L14.4375 13C15.222656 13 15.917969 13.445313 16.25 14.15625L27.125 37.53125C28.105469 39.644531 30.230469 41 32.5625 41L36.1875 41L34.59375 42.59375L37.40625 45.40625L42.40625 40.40625L43.84375 39L42.40625 37.59375L37.40625 32.59375L34.59375 35.40625L36.1875 37L32.5625 37C31.777344 37 31.082031 36.554688 30.75 35.84375L19.875 12.46875C18.894531 10.355469 16.769531 9 14.4375 9 Z M 20.96875 27.84375L17.25 35.84375C16.925781 36.546875 16.210938 37 15.4375 37L8 37L8 41L15.4375 41C17.761719 41 19.894531 39.644531 20.875 37.53125L23.1875 32.59375Z" fill="#FFFFFF" />
</svg>